<svg xmlns="http://www.w3.org/2000/svg" width="29.5" height="29.268" viewBox="0 0 29.5 29.268">
  <g id="f_logo" transform="translate(0 0)">
    <path id="패스_1" data-name="패스 1" d="M194.535,477.953a.959.959,0,0,0-.037.253l.007.024A1.132,1.132,0,0,1,194.535,477.953Z" transform="translate(-194.139 -455.266)" fill="rgba(0,0,0,0.3)"/>
    <path id="패스_2" data-name="패스 2" d="M221.389,327.242h0a6.819,6.819,0,0,1-.127-.751,30.643,30.643,0,0,0-.271-3.781A.448.448,0,0,1,221,322.5a7.757,7.757,0,0,0,.122-3.042c-.175-2.1-.28-2.232-2.438-2.28a.563.563,0,0,0-.07,0c-1.71.177-3.393-.271-5.112-.214a13.4,13.4,0,0,1-2.572-.11c-1.009-.163-2.032.267-3.054.016a.3.3,0,0,0-.368.128c-.234.436-.495.252-.8.074a3.051,3.051,0,0,0-1.722-.48,3.449,3.449,0,0,1-2.094,0h0a16.563,16.563,0,0,1-3.275.087,2.365,2.365,0,0,0-2.445,1.122c-.558.773-1.706.969-1.869,2.04-.008.05-.135.076-.155.131-.092.254-.285.538-.113.786a3.052,3.052,0,0,1,.2,2.146c-.069.84.534.793.884,1.086.385.323.707.185,1.005-.188a.569.569,0,0,1,.761-.148c.28.177.212.478.156.763a.969.969,0,0,1-.357.5A5.308,5.308,0,0,0,196.6,326.3c-.335.663-.8,1.52-.456,2.1.511.866.679,1.943,1.509,2.625.276.226.1.453-.07.663-.22.268-.384.132-.572-.049a7.434,7.434,0,0,1-1.212-1.535c-.245-.41-.44-.6-.774-.1a.786.786,0,0,1-.792.341,7.321,7.321,0,0,1-1.427-.1c.074,1.364-.473,2.645-.289,3.99a.8.8,0,0,1-.078.33,3.727,3.727,0,0,0-.359,2.463.987.987,0,0,1-.021.621,2.834,2.834,0,0,0,.153,1.972l.039-.277c.013.047.027.093.041.14a.958.958,0,0,1,.037-.253,1.131,1.131,0,0,0-.03.277.775.775,0,0,1-.06.772,1.941,1.941,0,0,0,.15,1.165,1.681,1.681,0,0,1,.046,1.619c-.1.2-.23.573.188.689a1.347,1.347,0,0,1,.809.727.935.935,0,0,0,.912.535c.768-.051,1.419.394,2.177.45a7.219,7.219,0,0,0,1.791.063,11.52,11.52,0,0,1,2.294-.206,29.3,29.3,0,0,0,4.258.061c1.541-.181,3.06.015,4.58-.066,1.2-.065,2.386.3,3.578.015a.473.473,0,0,1,.275.03,5.924,5.924,0,0,0,2.136.252,19.544,19.544,0,0,1,2.24.09,14.962,14.962,0,0,0,2.818.082c.429-.006.547-.165.607-.557a38.148,38.148,0,0,0,.119-8.013,44.255,44.255,0,0,1,.16-9.271A.475.475,0,0,1,221.389,327.242Zm-25.466,5.479a9.54,9.54,0,0,0-.7.861c-.152.233-.283.377-.542.182a.375.375,0,0,1-.025-.649,2.89,2.89,0,0,0,.935-1.332c.08-.151.127-.4.377-.309a.559.559,0,0,1,.31.516A1.318,1.318,0,0,1,195.923,332.721Zm15.088-9.225a.476.476,0,0,1,.618-.187c.866.27,1.334-.625,2.081-.676h0c.158-.279.34-.184.526-.034a1.572,1.572,0,0,0,1.345-.372,2.358,2.358,0,0,1,2.508-.156,1.123,1.123,0,0,1,.6,1.034c-.01.364-.162.626-.594.609-1.891-.072-3.722.6-5.622.46a1.978,1.978,0,0,0-.658.2c-.26.083-.516.106-.687-.157A.7.7,0,0,1,211.011,323.5Zm-9.856,0c.464.058.924.274,1.4-.116.207-.171.45.151.607.347a4.952,4.952,0,0,0,1.4,1.063c.466.286,1.219,1,1.179,1.411a18.412,18.412,0,0,1,.019,2.611,3.325,3.325,0,0,1-2.082,2.642,2.066,2.066,0,0,1-2.616-1.3.452.452,0,0,0-.234-.318c-.373-.174-.323-.459-.2-.769a1.326,1.326,0,0,0,.159-.531c-.059-.644.251-.829.828-.74.25.039.36-.158.517-.294a.924.924,0,0,1,1.044-.143.7.7,0,0,1,.422.793c-.03.381.3.737.077,1.149-.151.282-.313.523-.656.562a.3.3,0,0,1-.334-.2.616.616,0,0,1,.258-.733c.216-.178.34-.4-.009-.515-.3-.1-.587-.664-.938-.136-.255.383-.291.884-.575,1.267a.17.17,0,0,0,.06.242,1.016,1.016,0,0,0,.178.109c.608.278,1.288.916,1.85.621a3.984,3.984,0,0,0,1.479-2.133,1.016,1.016,0,0,0-.115-.881,16.038,16.038,0,0,0-2.04-2.714c-.3-.332-.783-.226-1.2-.215h0a4.665,4.665,0,0,1-2.519-.009h-.876A2.881,2.881,0,0,1,201.156,323.5Zm-3.632-.329c-.571.326-.832.073-.886-.49a3.287,3.287,0,0,1,.221-1.506c.15-.385.5-.391.678-.039.309.612.868,1.091.956,1.879A2.008,2.008,0,0,0,197.523,323.169Zm20.768,2.881a9.024,9.024,0,0,1-1.112.083,1.079,1.079,0,0,1-1.112-.014.144.144,0,0,0-.112.2c.389,1.177.389,1.176-.572,1.961a1.244,1.244,0,0,0-.166.207c.277.4.1.831,0,1.254q0-.626,0-1.251v0c-.193.276-.08.588-.091.883a.786.786,0,0,1-.283.682,5.48,5.48,0,0,0-1.561,1.984,7.333,7.333,0,0,1-2.367,2.217,7.57,7.57,0,0,1-4.322,1.243,3.482,3.482,0,0,0-1.427.292.4.4,0,0,1-.4.035,12.96,12.96,0,0,0-4.094-.954,4.8,4.8,0,0,1-2.711-1.348,1.157,1.157,0,0,1-.357-1.223c.728.4,1.464.738,2.2,1.058a13.032,13.032,0,0,0,3.2.961,13.8,13.8,0,0,0,6.821-.632,2.974,2.974,0,0,0,1.148-.656,12.129,12.129,0,0,0,3.423-6.065c.112-.54-.1-.7-.542-.691-.721.01-1.442.071-2.164.089-.244.006-.583.045-.62-.291a.551.551,0,0,1,.461-.554,17.234,17.234,0,0,1,2.538-.446,5.7,5.7,0,0,0,1.825-.054,6.749,6.749,0,0,1,2.279-.1c.417-.009.459.362.547.625C218.843,325.888,218.528,326,218.291,326.05Z" transform="translate(-191.938 -316.535)" fill="rgba(0,0,0,0.3)"/>
    <path id="패스_3" data-name="패스 3" d="M200.586,391.811a7.168,7.168,0,0,0,1.173-.165c.109-.021.341-.085.19-.256-.381-.433-.171-.938-.231-1.409-.053-.425-.138-.809-.715-.716-.164.03-.462-.083-.468.152-.013.568-.895.934-.361,1.614.027.034-.008.138-.04.193-.119.2-.542.308-.341.587C199.968,392.053,200.317,391.817,200.586,391.811Z" transform="translate(-198.646 -379.005)" fill="rgba(0,0,0,0.3)"/>
    <path id="패스_4" data-name="패스 4" d="M210.648,374.258c.678.015,1.5-.776,1.4-1.4-.073-.449-.608-.623-1.01-.787-.251-.1-1.069,1.009-1.041,1.414A.833.833,0,0,0,210.648,374.258Z" transform="translate(-207.464 -364.226)" fill="rgba(0,0,0,0.3)"/>
    <path id="패스_5" data-name="패스 5" d="M272.14,316.255a9.351,9.351,0,0,0-2.094,0h0A3.449,3.449,0,0,0,272.14,316.255Z" transform="translate(-259.091 -316.194)" fill="rgba(0,0,0,0.3)"/>
    <path id="패스_6" data-name="패스 6" d="M194.011,478.921,194,478.9c-.014-.047-.028-.093-.041-.14l-.039.277.027.66h0A.775.775,0,0,0,194.011,478.921Z" transform="translate(-193.644 -455.957)" fill="rgba(0,0,0,0.3)"/>
    <path id="패스_7" data-name="패스 7" d="M400.971,393.224a1.173,1.173,0,0,0,.009-.694h0A.475.475,0,0,0,400.971,393.224Z" transform="translate(-371.528 -381.824)" fill="rgba(0,0,0,0.3)"/>
    <path id="패스_8" data-name="패스 8" d="M243.033,372.811a4.666,4.666,0,0,0,2.519.009h0A6.983,6.983,0,0,0,243.033,372.811Z" transform="translate(-235.866 -364.775)" fill="rgba(0,0,0,0.3)"/>
    <path id="패스_9" data-name="패스 9" d="M357.91,402.689c.1-.423.279-.855,0-1.254v0Q357.91,402.064,357.91,402.689Z" transform="translate(-334.632 -389.48)" fill="rgba(0,0,0,0.3)"/>
    <path id="패스_10" data-name="패스 10" d="M363.98,384.266a1.079,1.079,0,0,0,1.112.014h0A3.478,3.478,0,0,0,363.98,384.266Z" transform="translate(-339.851 -374.682)" fill="rgba(0,0,0,0.3)"/>
    <path id="패스_11" data-name="패스 11" d="M347.176,358.581h0l.525-.034C347.516,358.4,347.334,358.3,347.176,358.581Z" transform="translate(-325.403 -352.482)" fill="rgba(0,0,0,0.3)"/>
  </g>
</svg>
