<svg xmlns="http://www.w3.org/2000/svg" width="43.667" height="43.324" viewBox="0 0 43.667 43.324">
  <g id="logo" transform="translate(-191.938 -316.195)">
    <path id="패스_1" data-name="패스 1" d="M194.553,477.953a1.42,1.42,0,0,0-.055.374l.011.035A1.674,1.674,0,0,1,194.553,477.953Z" transform="translate(-2.029 -128.176)" fill="#d73727"/>
    <path id="패스_2" data-name="패스 2" d="M235.533,332.356h0a10.093,10.093,0,0,1-.188-1.111,45.355,45.355,0,0,0-.4-5.6.664.664,0,0,1,.016-.308,11.482,11.482,0,0,0,.18-4.5c-.259-3.115-.414-3.3-3.609-3.375a.832.832,0,0,0-.1,0c-2.532.261-5.023-.4-7.568-.316a19.84,19.84,0,0,1-3.807-.162c-1.494-.242-3.007.395-4.521.024a.449.449,0,0,0-.544.19c-.346.645-.732.372-1.185.11a4.516,4.516,0,0,0-2.548-.71,5.105,5.105,0,0,1-3.1,0h0c-1.623-.038-3.275.489-4.848.129a3.5,3.5,0,0,0-3.62,1.661c-.826,1.144-2.526,1.434-2.767,3.02-.011.074-.2.112-.229.194-.137.377-.422.8-.167,1.164.7,1.009.371,2.19.29,3.177-.1,1.243.79,1.174,1.308,1.608.57.478,1.047.274,1.488-.278a.842.842,0,0,1,1.126-.218c.415.261.313.708.23,1.13a1.434,1.434,0,0,1-.529.742,7.858,7.858,0,0,0-1.592,2.033c-.5.982-1.178,2.249-.674,3.1.756,1.282,1.005,2.876,2.234,3.885.408.335.151.671-.1.981-.326.4-.568.2-.846-.073a11,11,0,0,1-1.794-2.272c-.362-.607-.651-.892-1.146-.141a1.164,1.164,0,0,1-1.172.5,10.836,10.836,0,0,1-2.112-.154c.11,2.019-.7,3.915-.428,5.906a1.185,1.185,0,0,1-.116.488c-.4,1.182-.968,2.33-.531,3.646a1.461,1.461,0,0,1-.031.919,4.2,4.2,0,0,0,.227,2.919l.058-.409c.019.069.04.138.061.207a1.418,1.418,0,0,1,.055-.374,1.674,1.674,0,0,0-.044.41,1.148,1.148,0,0,1-.089,1.143,2.873,2.873,0,0,0,.222,1.724,2.488,2.488,0,0,1,.069,2.4c-.149.3-.34.848.278,1.021a1.994,1.994,0,0,1,1.2,1.076,1.384,1.384,0,0,0,1.35.793c1.137-.075,2.1.584,3.222.666a10.687,10.687,0,0,0,2.652.093,17.056,17.056,0,0,1,3.4-.305,43.378,43.378,0,0,0,6.3.091c2.281-.268,4.53.023,6.78-.1,1.774-.1,3.532.447,5.3.022a.7.7,0,0,1,.407.045,8.768,8.768,0,0,0,3.162.373,28.924,28.924,0,0,1,3.315.133,22.146,22.146,0,0,0,4.171.121c.635-.008.809-.245.9-.825a56.47,56.47,0,0,0,.176-11.862,65.509,65.509,0,0,1,.237-13.724A.7.7,0,0,1,235.533,332.356Zm-37.7,8.111a14.118,14.118,0,0,0-1.033,1.274c-.225.345-.42.558-.8.269a.555.555,0,0,1-.037-.961,4.278,4.278,0,0,0,1.385-1.971c.119-.223.187-.6.558-.457a.827.827,0,0,1,.458.764A1.951,1.951,0,0,1,197.837,340.467Zm22.334-13.655a.7.7,0,0,1,.914-.277c1.282.4,1.974-.926,3.081-1h0c.234-.413.5-.272.778-.05a2.326,2.326,0,0,0,1.991-.55,3.491,3.491,0,0,1,3.713-.231,1.662,1.662,0,0,1,.887,1.531c-.015.539-.24.926-.88.9-2.8-.107-5.51.887-8.322.681a2.926,2.926,0,0,0-.973.294c-.385.123-.763.156-1.017-.232A1.043,1.043,0,0,1,220.171,326.813Zm-14.589,0c.687.086,1.368.405,2.067-.171.306-.253.667.223.9.513a7.33,7.33,0,0,0,2.066,1.574c.69.423,1.8,1.478,1.745,2.089-.129,1.326.341,2.672.028,3.864-.43,1.64-1.165,3.295-3.082,3.91a3.058,3.058,0,0,1-3.872-1.92.67.67,0,0,0-.346-.471c-.553-.257-.478-.68-.3-1.138a1.963,1.963,0,0,0,.235-.786c-.087-.954.372-1.227,1.225-1.1.371.057.533-.233.765-.435a1.368,1.368,0,0,1,1.546-.211,1.033,1.033,0,0,1,.624,1.174c-.045.565.44,1.091.114,1.7-.223.417-.464.774-.971.832a.445.445,0,0,1-.494-.3.912.912,0,0,1,.383-1.086c.32-.264.5-.594-.013-.763-.44-.144-.869-.983-1.389-.2-.377.568-.431,1.308-.852,1.876a.251.251,0,0,0,.089.359,1.5,1.5,0,0,0,.264.161c.9.411,1.907,1.356,2.738.919,1.125-.591,1.679-1.95,2.189-3.157a1.5,1.5,0,0,0-.17-1.3,23.741,23.741,0,0,0-3.019-4.017c-.451-.492-1.159-.334-1.776-.318h0a6.905,6.905,0,0,1-3.728-.014h-1.3A4.265,4.265,0,0,1,205.583,326.816Zm-5.377-.488c-.845.483-1.231.109-1.311-.725a4.866,4.866,0,0,1,.328-2.229c.223-.57.74-.579,1-.058.458.906,1.285,1.615,1.415,2.781A2.972,2.972,0,0,0,200.206,326.328Zm30.741,4.264a13.355,13.355,0,0,1-1.646.123,1.6,1.6,0,0,1-1.646-.021.212.212,0,0,0-.166.3c.576,1.742.576,1.741-.847,2.9a1.842,1.842,0,0,0-.246.307c.411.59.142,1.23,0,1.856q0-.926,0-1.852l0,0,0,0c-.286.409-.118.871-.135,1.307a1.163,1.163,0,0,1-.419,1.009,8.111,8.111,0,0,0-2.31,2.937c-.855,1.561-2.207,2.287-3.5,3.281-1.958,1.5-4.143,1.657-6.4,1.84a5.155,5.155,0,0,0-2.112.432.6.6,0,0,1-.59.052c-1.906-.974-3.992-1.1-6.06-1.413a7.111,7.111,0,0,1-4.013-2,1.713,1.713,0,0,1-.529-1.811c1.077.6,2.167,1.093,3.26,1.566a19.291,19.291,0,0,0,4.743,1.422,20.42,20.42,0,0,0,10.1-.935,4.4,4.4,0,0,0,1.7-.97,17.953,17.953,0,0,0,5.067-8.977c.166-.8-.148-1.032-.8-1.022-1.068.015-2.135.1-3.2.132-.362.009-.864.067-.918-.431a.816.816,0,0,1,.682-.82,25.509,25.509,0,0,1,3.757-.66,8.432,8.432,0,0,0,2.7-.08,9.991,9.991,0,0,1,3.374-.154c.617-.013.679.535.81.925C231.764,330.353,231.3,330.525,230.947,330.592Z" transform="translate(0 -0.314)" fill="#d73727"/>
    <path id="패스_3" data-name="패스 3" d="M200.992,393.04a10.61,10.61,0,0,0,1.736-.244c.161-.031.5-.126.282-.378-.563-.64-.254-1.389-.341-2.085-.079-.629-.2-1.2-1.058-1.06-.242.044-.684-.123-.692.224-.019.84-1.325,1.382-.535,2.389.04.051-.011.2-.06.286-.176.3-.8.455-.5.869C200.077,393.4,200.593,393.049,200.992,393.04Z" transform="translate(-6.183 -57.89)" fill="#d73727"/>
    <path id="패스_4" data-name="패스 4" d="M210.961,375.313c1,.023,2.223-1.148,2.074-2.077-.107-.665-.9-.922-1.495-1.165-.372-.152-1.582,1.493-1.541,2.093A1.233,1.233,0,0,0,210.961,375.313Z" transform="translate(-14.31 -44.269)" fill="#d73727"/>
    <path id="패스_5" data-name="패스 5" d="M273.146,316.283a13.844,13.844,0,0,0-3.1,0h0A5.105,5.105,0,0,0,273.146,316.283Z" transform="translate(-61.892)" fill="#d73727"/>
    <path id="패스_6" data-name="패스 6" d="M194.053,479l-.011-.035c-.021-.069-.042-.138-.061-.207l-.058.409.04.977h0A1.148,1.148,0,0,0,194.053,479Z" transform="translate(-1.573 -128.813)" fill="#d73727"/>
    <path id="패스_7" data-name="패스 7" d="M401.042,393.557a1.736,1.736,0,0,0,.013-1.027h0A.7.7,0,0,0,401.042,393.557Z" transform="translate(-165.521 -60.488)" fill="#d73727"/>
    <path id="패스_8" data-name="패스 8" d="M243.033,372.865a6.906,6.906,0,0,0,3.728.014h0A10.336,10.336,0,0,0,243.033,372.865Z" transform="translate(-40.487 -44.774)" fill="#d73727"/>
    <path id="패스_9" data-name="패스 9" d="M357.91,403.291c.143-.626.413-1.266,0-1.856l0,0Q357.91,402.365,357.91,403.291Z" transform="translate(-131.516 -67.544)" fill="#d73727"/>
    <path id="패스_10" data-name="패스 10" d="M363.98,384.286a1.6,1.6,0,0,0,1.646.021h0A5.148,5.148,0,0,0,363.98,384.286Z" transform="translate(-136.325 -53.905)" fill="#d73727"/>
    <path id="패스_11" data-name="패스 11" d="M347.176,358.666h0l.778-.05C347.679,358.395,347.41,358.254,347.176,358.666Z" transform="translate(-123.01 -33.445)" fill="#d73727"/>
  </g>
</svg>
