<svg xmlns="http://www.w3.org/2000/svg" width="40" height="40" viewBox="0 0 40 40">
  <g id="sns_nblog" transform="translate(-1470 -2261)">
    <rect id="사각형_77" data-name="사각형 77" width="40" height="40" rx="20" transform="translate(1470 2261)" fill="#999"/>
    <g id="그룹_12" data-name="그룹 12" transform="translate(855.11 2005.578)">
      <path id="패스_21" data-name="패스 21" d="M650.08,314.51a.8.8,0,1,0,.8.8A.8.8,0,0,0,650.08,314.51Z" transform="translate(-21.745 -40.49)" fill="#fff"/>
      <path id="패스_22" data-name="패스 22" d="M697.913,314a.863.863,0,1,0,.863.863A.862.862,0,0,0,697.913,314Z" transform="translate(-61.666 -40.063)" fill="#fff"/>
      <path id="패스_23" data-name="패스 23" d="M643.408,266.06H626.372a3.112,3.112,0,0,0-3.112,3.112v10.111a3.112,3.112,0,0,0,3.112,3.112h6.017l2.047,4.822s.141.417.481.417h0c.342,0,.481-.417.481-.417l2.047-4.822h5.962a3.112,3.112,0,0,0,3.112-3.112V269.172A3.112,3.112,0,0,0,643.408,266.06ZM630.566,275a1.926,1.926,0,0,1-1.921,1.9,1.6,1.6,0,0,1-1.157-.49v.334H626.1V271s-.007,0,0,0v0c.087.013,1.392,0,1.392,0v2.2c.327-.559,1.273-.549,1.273-.549A2.037,2.037,0,0,1,630.566,275Zm2.451-2.175v3.93h-1.362V272.86c0-.529-.657-.677-.657-.677v-1.372A1.885,1.885,0,0,1,633.018,272.821Zm3.229,4.08a2.109,2.109,0,1,1,2.284-2.1A2.2,2.2,0,0,1,636.246,276.9Zm7.463,0a1.943,1.943,0,0,1-2.009,2h-.618V277.6h.373s.853.079.843-1.236c0,0-.166.532-1.362.532a1.8,1.8,0,0,1-1.7-1.776V274.5a1.936,1.936,0,0,1,1.9-1.852,1.387,1.387,0,0,1,1.186.529v-.421h1.382Z" fill="#fff"/>
      <path id="패스_24" data-name="패스 24" d="M730.253,314.12a.843.843,0,1,0,.843.843A.844.844,0,0,0,730.253,314.12Z" transform="translate(-88.709 -40.164)" fill="#fff"/>
    </g>
  </g>
</svg>
