<svg xmlns="http://www.w3.org/2000/svg" width="40" height="40" viewBox="0 0 40 40">
  <g id="sns_kakao" transform="translate(-1620 -2261)">
    <rect id="사각형_75" data-name="사각형 75" width="40" height="40" rx="20" transform="translate(1620 2261)" fill="#999"/>
    <g id="그룹_17" data-name="그룹 17" transform="translate(4340.026 23935.932)">
      <path id="패스_26" data-name="패스 26" d="M67.594,77.39c-6.9,0-12.494,4.422-12.494,9.877,0,3.551,2.37,6.662,5.927,8.4-.261.976-.946,3.535-1.084,4.082-.169.68.249.671.523.487.215-.143,3.424-2.324,4.809-3.266a15.822,15.822,0,0,0,2.319.17c6.9,0,12.494-4.423,12.494-9.877S74.495,77.39,67.594,77.39" transform="translate(-2767.62 -21742.801)" fill="#fff"/>
      <g id="그룹_16" data-name="그룹 16" transform="translate(-2709.329 -21658.529)">
        <path id="패스_28" data-name="패스 28" d="M108.675,185.05h-3.654a.621.621,0,1,0,0,1.243h1.188v4.377a.608.608,0,0,0,.606.606h.133a.608.608,0,0,0,.605-.606v-4.377h1.122a.621.621,0,1,0,0-1.243Z" transform="translate(-104.4 -184.962)" fill="#969696"/>
        <path id="패스_29" data-name="패스 29" d="M262.087,188.844h-1.7v-4.47a.674.674,0,1,0-1.348,0v4.818a.658.658,0,0,0,.01.108.593.593,0,0,0-.01.107.564.564,0,0,0,.564.564h2.483a.564.564,0,0,0,0-1.128Z" transform="translate(-249.031 -183.699)" fill="#969696"/>
        <path id="패스_30" data-name="패스 30" d="M325.138,189.05l-1.893-2.487,1.711-1.711a.593.593,0,1,0-.839-.839L322,186.13v-1.756a.674.674,0,1,0-1.348,0v4.966a.674.674,0,1,0,1.348,0v-1.532l.385-.384,1.791,2.35a.6.6,0,1,0,.964-.725Z" transform="translate(-306.653 -183.699)" fill="#969696"/>
        <path id="패스_31" data-name="패스 31" d="M172.854,189.2l-1.821-4.981-.006-.006a.894.894,0,0,0-.853-.524.869.869,0,0,0-.885.627c-.012.027-.025.053-.035.082l-1.79,4.8a.6.6,0,1,0,1.139.4l.31-.884H171.4l.309.884a.6.6,0,1,0,1.14-.4Zm-3.546-1.612.838-2.39.027,0,.837,2.387Z" transform="translate(-163.35 -183.69)" fill="#969696"/>
      </g>
    </g>
  </g>
</svg>
