<svg xmlns="http://www.w3.org/2000/svg" width="40" height="40" viewBox="0 0 40 40">
  <g id="sns_insta" transform="translate(-1570 -2261)">
    <rect id="사각형_76" data-name="사각형 76" width="40" height="40" rx="20" transform="translate(1570 2261)" fill="#999"/>
    <g id="인스타" transform="translate(1573.01 2260.588)">
      <g id="그룹_13" data-name="그룹 13" transform="translate(6.3 9)">
        <path id="SVGID_1_" d="M12.783,9.075a7.959,7.959,0,0,0-2.689.515,5.577,5.577,0,0,0-1.947,1.282,5.31,5.31,0,0,0-1.269,1.96,8.281,8.281,0,0,0-.515,2.689C6.313,16.7,6.3,17.079,6.3,20.081s.025,3.38.075,4.561a7.813,7.813,0,0,0,.515,2.676,5.511,5.511,0,0,0,1.282,1.96,5.31,5.31,0,0,0,1.96,1.269,8.281,8.281,0,0,0,2.689.515c1.181.05,1.558.063,4.561.063s3.38-.013,4.561-.075a7.959,7.959,0,0,0,2.689-.515,5.511,5.511,0,0,0,1.96-1.282,5.31,5.31,0,0,0,1.269-1.96,8.281,8.281,0,0,0,.515-2.689c.05-1.181.063-1.558.063-4.561s-.013-3.38-.075-4.561a7.959,7.959,0,0,0-.515-2.689,5.511,5.511,0,0,0-1.282-1.96,5.31,5.31,0,0,0-1.96-1.269,8.281,8.281,0,0,0-2.689-.515C20.723,9.013,20.346,9,17.344,9s-3.38.025-4.561.075m.126,19.989a6.135,6.135,0,0,1-2.048-.377,3.7,3.7,0,0,1-2.1-2.1,6.122,6.122,0,0,1-.389-2.048c-.05-1.168-.063-1.52-.075-4.473s0-3.3.05-4.473a6.135,6.135,0,0,1,.377-2.048,3.695,3.695,0,0,1,2.1-2.1,6.469,6.469,0,0,1,2.048-.389c1.168-.05,1.52-.063,4.46-.075s3.3,0,4.473.05a6.135,6.135,0,0,1,2.048.377,3.326,3.326,0,0,1,1.269.829,3.424,3.424,0,0,1,.829,1.269,6.468,6.468,0,0,1,.389,2.048c.05,1.168.063,1.52.075,4.46s0,3.3-.05,4.473a6.308,6.308,0,0,1-.377,2.06,3.695,3.695,0,0,1-2.1,2.1,6.469,6.469,0,0,1-2.048.389c-1.168.05-1.52.063-4.473.075s-3.292,0-4.46-.05m9.021-14.913a1.326,1.326,0,1,0,1.319-1.332,1.33,1.33,0,0,0-1.319,1.332M11.69,20.069a5.679,5.679,0,1,0,5.666-5.691,5.673,5.673,0,0,0-5.666,5.691m1.985,0a3.688,3.688,0,1,1,3.694,3.681,3.7,3.7,0,0,1-3.694-3.681" transform="translate(-6.3 -9)" fill="#fff"/>
      </g>
    </g>
  </g>
</svg>
